<svg width="152" height="112" viewBox="0 0 152 112" fill="none" xmlns="http://www.w3.org/2000/svg">
<path d="M70.7663 29.7299C70.7663 11.3064 50.1355 0 35.3156 0C25.4056 0 19.2344 4.8649 19.2344 12.6578V17.6578H15.0451C7.7478 17.6578 0 25.4056 0 32.748V88.6943C0 91.5772 2.34236 93.9196 5.22526 93.9196H18.829C18.9191 93.9196 19.0091 93.9196 19.0542 93.8746C21.847 93.7394 24.0542 91.4421 24.0542 88.6493C24.0542 88.6493 24.0542 34.6399 24.0542 22.4777H35.4057C41.6219 22.4777 46.712 27.5678 46.712 33.7841V88.6493C46.712 91.5322 49.0544 93.8746 51.9373 93.8746H65.541C68.4239 93.8746 70.7663 91.5322 70.7663 88.6493C70.8114 64.3248 70.7663 29.7299 70.7663 29.7299ZM6.17121 89.0997C5.45049 89.0997 4.8649 88.5141 4.8649 87.7934V32.793C4.8649 28.1984 10.4956 22.5227 15.0451 22.5227H19.2344C19.2344 62.8383 19.2344 83.469 19.2344 87.8384C19.2344 88.5592 18.6488 89.1448 17.928 89.1448H6.17121V89.0997ZM65.9464 87.8384C65.9464 88.5592 65.3608 89.0997 64.6401 89.0997H52.8382C52.1175 89.0997 51.5319 88.5141 51.5319 87.7934V33.8291C51.5319 24.9101 44.2796 17.6578 35.3606 17.6578H24.0542V12.6578C24.0542 9.7298 25.4957 4.8649 35.3156 4.8649C54.2797 4.8649 65.9014 19.3695 65.9014 29.7299C65.9465 29.7299 65.9464 63.514 65.9464 87.8384ZM146.262 17.5677H132.659C129.776 17.5677 127.433 19.91 127.433 22.7929C127.433 24.0092 127.433 75.5411 127.433 88.9646H116.127C109.911 88.9646 104.821 83.8745 104.821 77.6582V22.7929C104.821 19.91 102.478 17.5677 99.5953 17.5677H85.9916C83.1087 17.5677 80.7663 19.91 80.7663 22.7929C80.7663 46.712 80.7663 81.7573 80.7663 81.7573C80.7663 100.181 101.397 111.487 116.217 111.487C126.127 111.487 132.298 106.622 132.298 98.8295V93.8295H136.487C143.785 93.8295 151.533 86.0817 151.533 78.7393V22.7929C151.488 19.91 149.145 17.5677 146.262 17.5677ZM127.433 98.8746C127.433 101.803 125.992 106.667 116.172 106.667C97.2079 106.667 85.5862 92.1628 85.5862 81.8024C85.5862 81.8024 85.5412 48.1985 85.5862 23.6939C85.5862 22.9731 86.1718 22.4326 86.8925 22.4326H98.6944C99.4151 22.4326 100.001 23.0182 100.001 23.7389V77.7483C100.001 86.6673 107.253 93.9196 116.172 93.9196H127.478L127.433 98.8746ZM146.668 78.7393C146.668 83.3339 141.037 89.0096 136.487 89.0096H132.298C132.298 60.8563 132.298 29.2795 132.298 23.6939C132.298 22.9731 132.884 22.4326 133.605 22.4326H141.893H145.406C146.127 22.4326 146.713 23.0182 146.713 23.7389V78.7393H146.668Z" fill="white"/>
</svg>
